<svg width="34" height="34" viewBox="0 0 34 34" fill="none" xmlns="http://www.w3.org/2000/svg">
<mask id="mask0_2_120" style="mask-type:alpha" maskUnits="userSpaceOnUse" x="-4" y="-4" width="42" height="42">
<rect x="-3.3996" y="-3.39958" width="40.7992" height="40.7992" fill="#D9D9D9"/>
</mask>
<g mask="url(#mask0_2_120)">
<path d="M17.0847 25.4995C17.4818 25.4995 17.8146 25.3652 18.0832 25.0966C18.3525 24.8273 18.4871 24.4941 18.4871 24.097V18.53H24.1399C24.5084 18.53 24.8273 18.3953 25.0966 18.1261C25.3652 17.8568 25.4995 17.5239 25.4995 17.1275C25.4995 16.7025 25.3652 16.3554 25.0966 16.0861C24.8273 15.8168 24.4941 15.6822 24.097 15.6822H18.4871V9.86014C18.4871 9.49159 18.3525 9.17302 18.0832 8.90442C17.8146 8.63515 17.4818 8.50051 17.0847 8.50051C16.6882 8.50051 16.3554 8.63515 16.0861 8.90442C15.8168 9.17302 15.6822 9.50587 15.6822 9.90298V15.6822H9.86014C9.49159 15.6822 9.17268 15.824 8.9034 16.1075C8.63481 16.3911 8.50051 16.7311 8.50051 17.1275C8.50051 17.5239 8.63481 17.8568 8.9034 18.1261C9.17268 18.3953 9.50587 18.53 9.90298 18.53H15.6822V24.1399C15.6822 24.5084 15.8168 24.8273 16.0861 25.0966C16.3554 25.3652 16.6882 25.4995 17.0847 25.4995ZM17 34C14.62 34 12.3958 33.5607 10.3273 32.6822C8.25945 31.8036 6.46055 30.5994 4.93058 29.0694C3.40061 27.5394 2.19636 25.7405 1.31781 23.6727C0.439271 21.6042 0 19.38 0 17C0 14.62 0.439271 12.3958 1.31781 10.3273C2.19636 8.25945 3.40061 6.46055 4.93058 4.93058C6.46055 3.40061 8.25945 2.19636 10.3273 1.31781C12.3958 0.439271 14.62 0 17 0C19.38 0 21.6042 0.439271 23.6727 1.31781C25.7405 2.19636 27.5394 3.40061 29.0694 4.93058C30.5994 6.46055 31.8036 8.25945 32.6822 10.3273C33.5607 12.3958 34 14.62 34 17C34 19.38 33.5607 21.6042 32.6822 23.6727C31.8036 25.7405 30.5994 27.5394 29.0694 29.0694C27.5394 30.5994 25.7405 31.8036 23.6727 32.6822C21.6042 33.5607 19.38 34 17 34ZM17 31.1522C20.9099 31.1522 24.2459 29.7708 27.008 27.008C29.7708 24.2459 31.1522 20.9099 31.1522 17C31.1522 13.0901 29.7708 9.75406 27.008 6.99196C24.2459 4.22917 20.9099 2.84778 17 2.84778C13.0901 2.84778 9.75406 4.22917 6.99196 6.99196C4.22917 9.75406 2.84778 13.0901 2.84778 17C2.84778 20.9099 4.22917 24.2459 6.99196 27.008C9.75406 29.7708 13.0901 31.1522 17 31.1522Z" fill="#6EEB83"/>
</g>
</svg>
