<svg width="30" height="30" viewBox="0 0 30 30" fill="none" xmlns="http://www.w3.org/2000/svg">
<mask id="mask0_17_195" style="mask-type:alpha" maskUnits="userSpaceOnUse" x="-6" y="-6" width="42" height="42">
<rect x="-5.11364" y="-5.11364" width="40.9091" height="40.9091" fill="#D9D9D9"/>
</mask>
<g mask="url(#mask0_17_195)">
<path d="M27.1023 29.4887L17.5568 19.9432C16.7046 20.625 15.7244 21.1648 14.6165 21.5625C13.5085 21.9602 12.3296 22.1591 11.0796 22.1591C7.98296 22.1591 5.3625 21.0869 3.21818 18.9426C1.07273 16.7972 0 14.1761 0 11.0796C0 7.98296 1.07273 5.36194 3.21818 3.21648C5.3625 1.07216 7.98296 0 11.0796 0C14.1761 0 16.7972 1.07216 18.9426 3.21648C21.0869 5.36194 22.1591 7.98296 22.1591 11.0796C22.1591 12.3296 21.9602 13.5085 21.5625 14.6165C21.1648 15.7244 20.625 16.7046 19.9432 17.5568L29.5313 27.1449C29.8438 27.4574 30 27.8409 30 28.2955C30 28.75 29.8296 29.1477 29.4887 29.4887C29.1762 29.8012 28.7784 29.9574 28.2955 29.9574C27.8125 29.9574 27.4148 29.8012 27.1023 29.4887ZM11.0796 18.75C13.2102 18.75 15.0216 18.0046 16.5136 16.5136C18.0046 15.0216 18.75 13.2102 18.75 11.0796C18.75 8.94887 18.0046 7.1375 16.5136 5.64546C15.0216 4.15455 13.2102 3.40909 11.0796 3.40909C8.94887 3.40909 7.1375 4.15455 5.64546 5.64546C4.15455 7.1375 3.40909 8.94887 3.40909 11.0796C3.40909 13.2102 4.15455 15.0216 5.64546 16.5136C7.1375 18.0046 8.94887 18.75 11.0796 18.75Z" fill="#6EEB83"/>
</g>
</svg>
