<svg width="33" height="19" viewBox="0 0 33 19" fill="none" xmlns="http://www.w3.org/2000/svg">
<mask id="mask0_2_99" style="mask-type:alpha" maskUnits="userSpaceOnUse" x="-5" y="-11" width="42" height="41">
<rect x="-4.1909" y="-10.6162" width="40.4427" height="40.4427" fill="#D9D9D9"/>
</mask>
<g mask="url(#mask0_2_99)">
<path d="M0.401401 18.5784C0.120324 18.3256 -0.013137 18.0166 0.00101799 17.6512C0.015173 17.2866 0.148634 16.9779 0.401401 16.7251L10.6385 6.44556C10.7787 6.30536 10.926 6.19987 11.0803 6.1291C11.2347 6.059 11.3961 6.02395 11.5646 6.02395C11.7614 6.02395 11.9299 6.059 12.0701 6.1291C12.211 6.19987 12.3657 6.30536 12.5342 6.44556L18.4318 12.3431L28.2058 2.65405H24.4557C24.0911 2.65405 23.7824 2.52767 23.5296 2.2749C23.2768 2.02214 23.1504 1.71309 23.1504 1.34775C23.1504 0.954786 23.2768 0.631918 23.5296 0.379151C23.7824 0.126384 24.0911 0 24.4557 0H31.3229C31.6882 0 32.004 0.126384 32.2703 0.379151C32.5372 0.631918 32.6707 0.940968 32.6707 1.3063V8.17247C32.6707 8.5378 32.5372 8.85393 32.2703 9.12085C32.004 9.38777 31.6882 9.52123 31.3229 9.52123C30.9859 9.52123 30.6839 9.38777 30.417 9.12085C30.1501 8.85393 30.0166 8.5378 30.0166 8.17247V4.59227L19.3589 15.2499C19.2181 15.3908 19.0704 15.4892 18.9161 15.5452C18.7617 15.6011 18.6003 15.6291 18.4318 15.6291C18.235 15.6291 18.0665 15.6011 17.9263 15.5452C17.7861 15.4892 17.6455 15.3908 17.5046 15.2499L11.5646 9.30992L2.25469 18.6208C2.00192 18.8736 1.69287 19 1.32754 19C0.962882 19 0.654168 18.8595 0.401401 18.5784Z" fill="#6EEB83"/>
</g>
</svg>
