<svg width="34" height="34" viewBox="0 0 34 34" fill="none" xmlns="http://www.w3.org/2000/svg">
<mask id="mask0_17_347" style="mask-type:alpha" maskUnits="userSpaceOnUse" x="-4" y="-4" width="42" height="42">
<rect x="-3.47244" y="-3.39993" width="40.8001" height="40.8001" fill="#D9D9D9"/>
</mask>
<g mask="url(#mask0_17_347)">
<path d="M1.62758 13.6C1.14591 13.6 0.742443 13.43 0.417175 13.09C0.0907744 12.75 -0.0440928 12.3534 0.012574 11.9C0.210908 10.03 0.699943 8.23765 1.47968 6.52292C2.25828 4.80931 3.28508 3.27251 4.56009 1.9125C4.87175 1.60084 5.26842 1.445 5.75009 1.445C6.23176 1.445 6.64259 1.615 6.98259 1.955C7.29426 2.26667 7.45009 2.64917 7.45009 3.10251C7.45009 3.55584 7.29426 3.96668 6.98259 4.33501C5.99092 5.41168 5.19079 6.58015 4.58219 7.84042C3.97245 9.10182 3.58258 10.455 3.41258 11.9C3.35592 12.3817 3.16495 12.7852 2.83968 13.1104C2.51328 13.4368 2.10925 13.6 1.62758 13.6ZM32.2277 13.6C31.7743 13.6 31.3776 13.4368 31.0376 13.1104C30.6976 12.7852 30.4993 12.3817 30.4426 11.9C30.2726 10.455 29.8833 9.10182 29.2747 7.84042C28.665 6.58015 27.8643 5.41168 26.8726 4.33501C26.561 3.96668 26.4051 3.55584 26.4051 3.10251C26.4051 2.64917 26.5751 2.26667 26.9151 1.955C27.2551 1.615 27.6586 1.445 28.1255 1.445C28.5936 1.445 28.9835 1.60084 29.2951 1.9125C30.5701 3.27251 31.5975 4.80931 32.3773 6.52292C33.1559 8.23765 33.6443 10.03 33.8427 11.9C33.8993 12.3534 33.7645 12.75 33.4381 13.09C33.1128 13.43 32.7093 13.6 32.2277 13.6ZM5.02759 28.9001C4.54592 28.9001 4.14188 28.7369 3.81548 28.4105C3.49022 28.0852 3.32758 27.6817 3.32758 27.2001C3.32758 26.7184 3.49022 26.3149 3.81548 25.9897C4.14188 25.6633 4.54592 25.5001 5.02759 25.5001H6.72759V13.6C6.72759 11.2484 7.43593 9.15849 8.8526 7.33042C10.2693 5.50348 12.1109 4.30668 14.3776 3.74001V2.55001C14.3776 1.84167 14.6258 1.23987 15.1222 0.744602C15.6175 0.248201 16.2193 0 16.9276 0C17.636 0 18.2378 0.248201 18.733 0.744602C19.2294 1.23987 19.4776 1.84167 19.4776 2.55001V3.74001C21.7443 4.30668 23.586 5.50348 25.0026 7.33042C26.4193 9.15849 27.1276 11.2484 27.1276 13.6V25.5001H28.8276C29.3093 25.5001 29.7128 25.6633 30.038 25.9897C30.3644 26.3149 30.5276 26.7184 30.5276 27.2001C30.5276 27.6817 30.3644 28.0852 30.038 28.4105C29.7128 28.7369 29.3093 28.9001 28.8276 28.9001H5.02759ZM16.9276 34.0001C15.9926 34.0001 15.1925 33.6674 14.5272 33.0022C13.8608 32.3358 13.5276 31.5351 13.5276 30.6001H20.3276C20.3276 31.5351 19.995 32.3358 19.3297 33.0022C18.6633 33.6674 17.8626 34.0001 16.9276 34.0001ZM10.1276 25.5001H23.7276V13.6C23.7276 11.73 23.0618 10.1292 21.7301 8.79752C20.3985 7.46585 18.7976 6.80002 16.9276 6.80002C15.0576 6.80002 13.4568 7.46585 12.1251 8.79752C10.7934 10.1292 10.1276 11.73 10.1276 13.6V25.5001Z" fill="#1C1B1F"/>
</g>
</svg>
